<svg xmlns="http://www.w3.org/2000/svg" version="1.1" xmlns:xlink="http://www.w3.org/1999/xlink" xmlns:svgjs="http://svgjs.dev/svgjs" width="2000" height="2242" viewBox="0 0 2000 2242"><g transform="matrix(1,0,0,1,-3.115229323475546,0)"><svg viewBox="0 0 321 360" data-background-color="#ffffff" preserveAspectRatio="xMidYMid meet" height="2242" width="2000" xmlns="http://www.w3.org/2000/svg" xmlns:xlink="http://www.w3.org/1999/xlink"><g id="tight-bounds" transform="matrix(1,0,0,1,0.5000056935822386,0)"><svg viewBox="0 0 320 360" height="360" width="320"><g><svg></svg></g><g><svg viewBox="0 0 320 360" height="360" width="320"><g><path transform="translate(-8.74414,11.24127) scale(3.37517,3.37517)" d="M89.9 29.89c-2.6-3.17-7.52-4.8-12.74-6.52-2.24-0.74-4.55-1.51-6.81-2.44-2.28-0.94-4.52-2.15-6.7-3.31-4.43-2.38-9.01-4.84-13.66-4.84-4.64 0-9.22 2.46-13.65 4.84-2.18 1.17-4.43 2.38-6.71 3.32-2.25 0.93-4.57 1.69-6.81 2.44-5.22 1.73-10.14 3.36-12.74 6.52-3.47 4.23-3.39 10.5-3.31 17.13 0.01 1 0.02 1.99 0.02 2.97 0 0.98-0.01 1.97-0.03 2.97-0.08 6.64-0.16 12.9 3.31 17.14 2.6 3.16 7.52 4.79 12.73 6.52 2.24 0.74 4.55 1.51 6.82 2.44 2.28 0.94 4.52 2.14 6.69 3.31 4.44 2.39 9.02 4.85 13.66 4.85 4.65 0 9.23-2.46 13.66-4.84 2.18-1.17 4.42-2.38 6.7-3.31 2.25-0.93 4.55-1.69 6.78-2.43 5.25-1.74 10.17-3.37 12.77-6.53 3.47-4.23 3.39-10.5 3.31-17.13-0.01-1.01-0.03-2-0.03-2.98 0-0.98 0.01-1.97 0.03-2.96 0.11-6.66 0.19-12.93-3.29-17.16zM93.12 27.25c-4.66-5.68-13.57-7.03-21.18-10.17-6.81-2.8-13.74-8.47-21.94-8.47-8.2 0-15.13 5.67-21.94 8.47-7.62 3.14-16.52 4.49-21.18 10.17-5.06 6.16-4.24 14.85-4.24 22.75 0 7.89-0.82 16.59 4.23 22.75 4.66 5.68 13.57 7.03 21.18 10.17 6.81 2.81 13.74 8.47 21.94 8.47 8.2 0 15.13-5.66 21.94-8.47 7.62-3.14 16.52-4.49 21.18-10.17 5.05-6.16 4.23-14.85 4.23-22.75 0.02-7.9 0.84-16.59-4.22-22.75zM94.4 52.94c0.09 6.88 0.17 13.35-3.58 17.92-2.82 3.43-7.9 5.12-13.28 6.9-2.24 0.74-4.53 1.5-6.73 2.41-2.22 0.91-4.43 2.1-6.57 3.25-4.58 2.46-9.29 4.99-14.24 4.99-4.95 0-9.66-2.53-14.22-4.98-2.15-1.16-4.37-2.35-6.59-3.26-2.23-0.92-4.52-1.68-6.74-2.41-5.39-1.78-10.47-3.47-13.28-6.9-3.74-4.56-3.66-11.04-3.58-17.9 0.01-1 0.03-1.98 0.03-2.96 0-0.98-0.01-1.96-0.02-2.96-0.09-6.86-0.17-13.34 3.58-17.9 2.82-3.43 7.9-5.11 13.28-6.9 2.23-0.74 4.52-1.5 6.74-2.41 2.22-0.92 4.44-2.11 6.59-3.26 4.56-2.45 9.28-4.99 14.22-4.99 4.94 0 9.66 2.53 14.22 4.98 2.15 1.16 4.37 2.35 6.59 3.26 2.22 0.92 4.52 1.67 6.73 2.41 5.38 1.78 10.47 3.47 13.28 6.9 3.75 4.57 3.67 11.04 3.58 17.9-0.01 1.01-0.03 1.99-0.03 2.96 0 0.98 0.01 1.96 0.02 2.95z" fill="#2257bf" fill-rule="nonzero" stroke="none" stroke-width="1" stroke-linecap="butt" stroke-linejoin="miter" stroke-miterlimit="10" stroke-dasharray="" stroke-dashoffset="0" font-family="none" font-weight="none" font-size="none" text-anchor="none" style="mix-blend-mode: normal" data-fill-palette-color="tertiary"></path></g><g transform="matrix(1,0,0,1,64,127.01816412121975)"><svg viewBox="0 0 192 105.96367175756049" height="105.96367175756049" width="192"><g><svg viewBox="0 0 192 105.96367175756049" height="105.96367175756049" width="192"><g><svg viewBox="0 0 192 105.96367175756049" height="105.96367175756049" width="192"><g transform="matrix(1,0,0,1,0,78.7470056153822)"><svg viewBox="0 0 192 27.216666142178305" height="27.216666142178305" width="192"><g id="textblocktransform"><svg viewBox="0 0 192 27.216666142178305" height="27.216666142178305" width="192" id="textblock"><g><svg viewBox="0 0 192 27.216666142178305" height="27.216666142178305" width="192"><g transform="matrix(1,0,0,1,0,0)"><svg width="192" viewBox="-1.05 -41.38 311.3 44.99" height="27.216666142178305" data-palette-color="#ffffff"><path d="M15.75-25.61L15.75-25.61Q18.65-25.61 19.97-25.13 21.29-24.66 21.63-24.39L21.63-24.39Q22.17-24.05 22.46-23.51L22.46-23.51Q22.63-23.24 22.85-22.58 23.07-21.92 23.17-21.14L23.17-21.14Q23.29-20.53 23.19-20.28 23.1-20.02 22.58-19.65L22.58-19.65Q22-19.26 21.3-18.96 20.61-18.65 20.17-18.53L20.17-18.53Q19.8-18.43 19.6-18.48 19.41-18.53 19.07-18.77L19.07-18.77Q18.68-19.04 17.97-19.37 17.26-19.7 16.02-19.7L16.02-19.7Q14.43-19.7 13-18.92 11.57-18.14 10.68-16.58 9.79-15.01 9.79-12.67L9.79-12.67Q9.79-9.16 11.63-7.23 13.48-5.3 16.58-5.3L16.58-5.3Q18.16-5.3 19.21-5.63 20.26-5.96 20.87-6.3L20.87-6.3Q21.36-6.57 21.62-6.43 21.88-6.3 22.02-5.96L22.02-5.96 23.8-1.93Q24.07-1.29 23.51-1.03L23.51-1.03Q22.61-0.56 20.53 0.02 18.46 0.61 15.41 0.61L15.41 0.61Q9.28 0.61 5.62-2.65 1.95-5.91 1.95-12.4L1.95-12.4Q1.95-16.55 3.64-19.51 5.32-22.46 8.42-24.04 11.52-25.61 15.75-25.61ZM39.77 0.61L39.77 0.61Q33.62 0.61 30.03-2.66 26.44-5.93 26.44-12.4L26.44-12.4Q26.44-19.04 30.16-22.33 33.88-25.61 40.11-25.61L40.11-25.61Q46.12-25.61 49.73-22.38 53.34-19.14 53.34-12.84L53.34-12.84Q53.34-6.27 49.73-2.83 46.12 0.61 39.77 0.61ZM40.01-5.3L40.01-5.3Q42.7-5.3 44.06-6.97 45.43-8.64 45.43-12.7L45.43-12.7Q45.43-16.55 44.05-18.13 42.67-19.7 39.96-19.7L39.96-19.7Q37.35-19.7 35.85-18.01 34.35-16.31 34.35-12.5L34.35-12.5Q34.35-8.52 35.78-6.91 37.2-5.3 40.01-5.3ZM82.76-15.55L82.76-15.55 82.76-1.29Q82.76-0.56 82.45-0.28 82.15 0 81.42 0L81.42 0 76.39 0Q75.65 0 75.35-0.28 75.04-0.56 75.04-1.29L75.04-1.29 75.04-14.28Q75.04-16.94 73.92-18.16 72.8-19.38 70.87-19.38L70.87-19.38Q68.94-19.38 67.9-18.55 66.87-17.72 66.3-16.46L66.3-16.46 66.3-1.29Q66.3-0.56 66-0.28 65.69 0 64.96 0L64.96 0 59.93 0Q59.2 0 58.89-0.28 58.59-0.56 58.59-1.29L58.59-1.29 58.59-21.75Q58.59-22.34 58.83-22.66L58.83-22.66Q59.35-23.34 60.07-24.05 60.79-24.76 61.84-25.56L61.84-25.56Q62.15-25.81 62.45-25.81L62.45-25.81Q62.71-25.81 63.06-25.56L63.06-25.56Q64.08-24.76 64.81-24.02 65.55-23.29 66.11-22.51L66.11-22.51 66.23-22.51Q66.65-23.05 67.48-23.77 68.31-24.49 69.81-25.05 71.31-25.61 73.65-25.61L73.65-25.61Q75.95-25.61 78.02-24.68 80.1-23.75 81.43-21.56 82.76-19.36 82.76-15.55ZM113.52-15.55L113.52-15.55 113.52-1.29Q113.52-0.56 113.21-0.28 112.91 0 112.18 0L112.18 0 107.15 0Q106.41 0 106.11-0.28 105.8-0.56 105.8-1.29L105.8-1.29 105.8-14.28Q105.8-16.94 104.68-18.16 103.56-19.38 101.63-19.38L101.63-19.38Q99.7-19.38 98.66-18.55 97.62-17.72 97.06-16.46L97.06-16.46 97.06-1.29Q97.06-0.56 96.76-0.28 96.45 0 95.72 0L95.72 0 90.69 0Q89.96 0 89.65-0.28 89.35-0.56 89.35-1.29L89.35-1.29 89.35-21.75Q89.35-22.34 89.59-22.66L89.59-22.66Q90.1-23.34 90.83-24.05 91.55-24.76 92.6-25.56L92.6-25.56Q92.91-25.81 93.21-25.81L93.21-25.81Q93.47-25.81 93.82-25.56L93.82-25.56Q94.84-24.76 95.57-24.02 96.31-23.29 96.87-22.51L96.87-22.51 96.99-22.51Q97.4-23.05 98.23-23.77 99.06-24.49 100.57-25.05 102.07-25.61 104.41-25.61L104.41-25.61Q106.71-25.61 108.78-24.68 110.86-23.75 112.19-21.56 113.52-19.36 113.52-15.55ZM132.36 0.61L132.36 0.61Q128.24 0.61 125.19-0.72 122.13-2.05 120.45-4.86 118.76-7.67 118.76-12.11L118.76-12.11Q118.76-18.77 122.18-22.19 125.6-25.61 131.26-25.61L131.26-25.61Q134.95-25.61 137.5-24.29 140.05-22.97 141.38-20.65 142.71-18.33 142.71-15.36L142.71-15.36Q142.71-12.45 141.23-11.3 139.74-10.16 136.88-10.16L136.88-10.16 126.41-10.16Q126.6-7.64 128.25-6.32 129.9-5 132.73-5L132.73-5Q134.98-5 136.33-5.68 137.69-6.35 138.22-6.74L138.22-6.74Q138.69-7.08 139.27-7.06L139.27-7.06Q139.74-7.06 140.6-6.87 141.47-6.69 142.32-6.2L142.32-6.2Q142.93-5.88 142.93-5.32L142.93-5.32Q142.93-5 142.81-4.42L142.81-4.42Q142.74-4.08 142.57-3.43 142.4-2.78 142.13-2.22L142.13-2.22Q141.98-1.95 141.66-1.71L141.66-1.71Q141.18-1.37 140.09-0.81 139-0.24 137.12 0.18 135.24 0.61 132.36 0.61ZM126.36-15.16L126.36-15.16 134.32-15.16Q135.56-15.16 135.56-16.31L135.56-16.31Q135.56-18.04 134.47-19.23 133.39-20.41 131.22-20.41L131.22-20.41Q128.85-20.41 127.74-18.9 126.63-17.38 126.36-15.16ZM160.53-25.61L160.53-25.61Q163.44-25.61 164.76-25.13 166.08-24.66 166.42-24.39L166.42-24.39Q166.96-24.05 167.25-23.51L167.25-23.51Q167.42-23.24 167.64-22.58 167.86-21.92 167.96-21.14L167.96-21.14Q168.08-20.53 167.98-20.28 167.88-20.02 167.37-19.65L167.37-19.65Q166.78-19.26 166.09-18.96 165.39-18.65 164.95-18.53L164.95-18.53Q164.59-18.43 164.39-18.48 164.2-18.53 163.85-18.77L163.85-18.77Q163.46-19.04 162.76-19.37 162.05-19.7 160.8-19.7L160.8-19.7Q159.22-19.7 157.79-18.92 156.36-18.14 155.47-16.58 154.58-15.01 154.58-12.67L154.58-12.67Q154.58-9.16 156.42-7.23 158.26-5.3 161.36-5.3L161.36-5.3Q162.95-5.3 164-5.63 165.05-5.96 165.66-6.3L165.66-6.3Q166.15-6.57 166.41-6.43 166.66-6.3 166.81-5.96L166.81-5.96 168.59-1.93Q168.86-1.29 168.3-1.03L168.3-1.03Q167.39-0.56 165.32 0.02 163.24 0.61 160.19 0.61L160.19 0.61Q154.06 0.61 150.4-2.65 146.74-5.91 146.74-12.4L146.74-12.4Q146.74-16.55 148.43-19.51 150.11-22.46 153.21-24.04 156.31-25.61 160.53-25.61ZM182.46 0.61L182.46 0.61Q174.3 0.61 174.3-7.86L174.3-7.86 174.3-19.31 171.54-19.31Q170.81-19.31 170.53-19.62 170.25-19.92 170.25-20.65L170.25-20.65 170.25-23.66Q170.25-24.39 170.53-24.69 170.81-25 171.54-25L171.54-25 174.3-25 174.3-28.93Q174.3-29.52 174.55-29.83L174.55-29.83Q175.57-31.18 177.55-32.74L177.55-32.74Q177.89-32.98 178.16-32.98L178.16-32.98Q178.45-32.98 178.74-32.74L178.74-32.74Q179.79-31.93 180.51-31.23 181.24-30.52 181.75-29.83L181.75-29.83Q181.99-29.52 181.99-28.93L181.99-28.93 181.99-25 186.31-25Q187.05-25 187.33-24.69 187.61-24.39 187.61-23.66L187.61-23.66 187.61-20.65Q187.61-19.92 187.33-19.62 187.05-19.31 186.31-19.31L186.31-19.31 181.99-19.31 181.99-9.2Q181.99-5.3 184.82-5.3L184.82-5.3Q185.26-5.3 185.63-5.38 186-5.47 186.26-5.57L186.26-5.57Q186.78-5.76 186.98-5.71 187.19-5.66 187.36-5.18L187.36-5.18 188.78-1.39Q189-0.78 188.49-0.51L188.49-0.51Q188.12-0.34 186.72 0.13 185.31 0.61 182.46 0.61ZM214.36-10.21L214.36-1.29Q214.36-0.56 214.05-0.28 213.75 0 213.02 0L213.02 0 207.99 0Q207.26 0 206.95-0.28 206.65-0.56 206.65-1.29L206.65-1.29 206.65-34.33Q206.65-34.91 206.89-35.23L206.89-35.23Q207.91-36.57 209.89-38.13L209.89-38.13Q210.23-38.38 210.5-38.38L210.5-38.38Q210.82-38.38 211.11-38.13L211.11-38.13Q212.16-37.33 212.88-36.62 213.6-35.91 214.12-35.23L214.12-35.23Q214.36-34.91 214.36-34.33L214.36-34.33 214.36-15.16 214.65-15.16Q218.36-15.16 219.69-16.49 221.02-17.82 221.02-20.19L221.02-20.19 221.02-21.51Q221.02-22.09 221.27-22.41L221.27-22.41Q222.29-23.75 224.27-25.32L224.27-25.32Q224.61-25.56 224.88-25.56L224.88-25.56Q225.2-25.56 225.49-25.32L225.49-25.32Q226.54-24.51 227.26-23.8 227.98-23.1 228.5-22.41L228.5-22.41Q228.74-22.09 228.74-21.51L228.74-21.51 228.74-20.19Q228.74-18.8 228.19-17.11 227.64-15.43 226.2-14.14 224.76-12.84 222.1-12.62L222.1-12.62 222.1-12.5Q224.15-11.6 225.64-10.11 227.13-8.62 228.13-6.92 229.13-5.22 229.68-3.67 230.23-2.12 230.4-1.05L230.4-1.05Q230.57 0 229.69 0L229.69 0 223.27 0Q222.44 0 222.32-1L222.32-1Q222.15-2.15 221.57-3.7 221-5.25 220.04-6.74 219.07-8.23 217.72-9.22 216.36-10.21 214.65-10.21L214.65-10.21 214.36-10.21ZM243.65 0.61L243.65 0.61Q234.96 0.61 234.96-9.91L234.96-9.91 234.94-22.31Q234.94-22.9 235.18-23.22L235.18-23.22Q236.21-24.56 238.19-26.12L238.19-26.12Q238.53-26.37 238.8-26.37L238.8-26.37Q239.11-26.37 239.41-26.12L239.41-26.12Q240.46-25.32 241.18-24.61 241.9-23.9 242.41-23.22L242.41-23.22Q242.65-22.9 242.65-22.31L242.65-22.31 242.65-10.6Q242.65-5.3 246.85-5.3L246.85-5.3Q248.93-5.3 250.17-6.75 251.42-8.2 251.42-10.69L251.42-10.69 251.42-22.31Q251.42-22.9 251.66-23.22L251.66-23.22Q252.69-24.56 254.67-26.12L254.67-26.12Q255.01-26.37 255.28-26.37L255.28-26.37Q255.59-26.37 255.89-26.12L255.89-26.12Q256.94-25.32 257.66-24.61 258.38-23.9 258.89-23.22L258.89-23.22Q259.13-22.9 259.13-22.31L259.13-22.31 259.13-1.12Q259.13-0.66 258.82-0.33 258.5 0 258.01 0L258.01 0 254.35 0Q253.96 0 253.65-0.11 253.35-0.22 253.08-0.54L253.08-0.54 251.56-2.49 251.39-2.49Q251-1.93 250.19-1.2 249.37-0.46 247.82 0.07 246.27 0.61 243.65 0.61ZM273.44-22.17L273.44-20.36 273.53-20.36Q275.37-25.44 280.13-25.44L280.13-25.44Q280.74-25.44 281.13-25.38 281.52-25.32 281.66-25.27L281.66-25.27Q282.03-25.15 282.03-24.71L282.03-24.71 282.03-18.82Q282.03-18.07 281.15-18.41L281.15-18.41Q280.86-18.53 280.31-18.66 279.76-18.8 278.78-18.8L278.78-18.8Q276.27-18.8 274.85-16.96 273.44-15.11 273.44-11.94L273.44-11.94 273.44-1.29Q273.44-0.56 273.13-0.28 272.83 0 272.09 0L272.09 0 267.06 0Q266.33 0 266.03-0.28 265.72-0.56 265.72-1.29L265.72-1.29 265.72-21.75Q265.72-22.34 265.97-22.66L265.97-22.66Q266.48-23.34 267.2-24.05 267.92-24.76 268.97-25.56L268.97-25.56Q269.16-25.71 269.36-25.76 269.56-25.81 269.7-25.81L269.7-25.81Q270.04-25.81 270.39-25.56L270.39-25.56Q272.41-23.97 273.22-22.85L273.22-22.85Q273.44-22.56 273.44-22.17L273.44-22.17ZM292.14 0.61L292.14 0.61Q288.55 0.61 286.43-1.4 284.32-3.42 284.32-6.96L284.32-6.96Q284.32-8.79 284.99-10.36 285.67-11.94 287.34-13.15 289.01-14.36 292.03-15.09 295.04-15.82 299.73-15.94L299.73-15.94Q299.73-18.16 298.62-19.14 297.51-20.12 295.29-20.12L295.29-20.12Q293.28-20.12 292.01-19.43 290.74-18.75 290.43-18.51L290.43-18.51Q290.08-18.21 289.6-18.29L289.6-18.29Q288.94-18.38 288.19-18.63 287.45-18.87 286.59-19.19L286.59-19.19Q286.47-19.24 286.33-19.35 286.18-19.46 286.15-19.68L286.15-19.68Q286.15-19.8 286.18-19.98 286.2-20.17 286.3-20.65L286.3-20.65Q286.4-21.14 286.59-21.86 286.79-22.58 286.96-22.97L286.96-22.97Q287.18-23.39 287.69-23.75L287.69-23.75Q288.11-24.1 290.21-24.85 292.31-25.61 296.29-25.61L296.29-25.61Q307.25-25.61 307.25-14.94L307.25-14.94 307.25-1.12Q307.25-0.66 306.99-0.33 306.74 0 306.12 0L306.12 0 302.46 0Q302.07 0 301.77-0.11 301.46-0.22 301.19-0.54L301.19-0.54 299.68-2.49 299.51-2.49Q298.39-0.85 296.49-0.12 294.6 0.61 292.14 0.61ZM294.82-5.05L294.82-5.05Q297.07-5.05 298.21-6.2 299.36-7.35 299.68-8.57L299.68-8.57 299.68-11.28Q296.29-11.28 294.59-10.75 292.89-10.23 292.33-9.39 291.77-8.54 291.77-7.57L291.77-7.57Q291.77-6.15 292.65-5.6 293.53-5.05 294.82-5.05Z" opacity="1" transform="matrix(1,0,0,1,0,0)" fill="#ffffff" class="wordmark-text-0" data-fill-palette-color="quaternary" id="text-0"></path></svg></g></svg></g></svg></g></svg></g><g transform="matrix(1,0,0,1,72.20446532934439,0)"><svg viewBox="0 0 47.59106934131122 75.22686521698084" height="75.22686521698084" width="47.59106934131122"><g><svg xmlns="http://www.w3.org/2000/svg" xmlns:xlink="http://www.w3.org/1999/xlink" version="1.1" x="0" y="0" viewBox="22.162 6.498999984194633 55.67208907114979 88.00047569571484" enable-background="new 0 0 100 100" xml:space="preserve" height="75.22686521698084" width="47.59106934131122" class="icon-icon-0" data-fill-palette-color="quaternary" id="icon-0"><g fill="#ffffff" data-fill-palette-color="quaternary"><g fill="#ffffff" data-fill-palette-color="quaternary"><path fill-rule="evenodd" clip-rule="evenodd" d="M61.449 22.663C65.912 22.663 69.53 19.045 69.53 14.581S65.912 6.5 61.449 6.5A8.081 8.081 0 1 0 61.449 22.663M61.449 8.745A5.836 5.836 0 1 1 61.449 20.418 5.837 5.837 0 1 1 61.449 8.745M77.648 37.335C76.448 29.79 69.652 24.01 61.449 24.01 56.989 24.01 52.955 25.727 50 28.499 47.045 25.727 43.01 24.01 38.55 24.01 30.332 24.01 23.529 29.81 22.345 37.375 22.233 37.584 22.162 37.903 22.162 38.377V54.99A4.938 4.938 0 0 0 29.795 59.125V89.561A4.938 4.938 0 0 0 38.55 92.694 4.938 4.938 0 0 0 47.305 89.561V59.125C47.522 59.267 47.753 59.388 47.992 59.495 48.078 59.533 48.168 59.562 48.256 59.597 48.447 59.669 48.643 59.731 48.844 59.78 48.933 59.801 49.021 59.823 49.112 59.84 49.401 59.894 49.695 59.93 49.999 59.93A4.8 4.8 0 0 0 51.152 59.78C51.357 59.73 51.557 59.669 51.753 59.593 51.836 59.562 51.92 59.534 52 59.498A5 5 0 0 0 52.694 59.126V89.562A4.938 4.938 0 0 0 61.448 92.695 4.938 4.938 0 0 0 70.202 89.562V59.125A4.9 4.9 0 0 0 72.896 59.929 4.94 4.94 0 0 0 77.834 54.984V38.351C77.837 37.868 77.764 37.544 77.648 37.335M45.244 37.375C45.132 37.584 45.061 37.903 45.061 38.377V89.561A2.694 2.694 0 0 1 39.673 89.561V57.459A1.122 1.122 0 1 0 37.428 57.459V89.562A2.694 2.694 0 0 1 32.04 89.562V39.5A1.123 1.123 0 0 0 29.794 39.5V54.99A2.694 2.694 0 0 1 24.406 54.99V39.725C24.406 32.286 30.791 26.255 38.549 26.255 42.399 26.255 45.908 27.743 48.47 30.149 46.812 32.214 45.666 34.678 45.244 37.375M52.694 54.983A2.695 2.695 0 1 1 47.306 54.983V39.725C47.306 36.785 48.315 34.073 50 31.858 51.686 34.073 52.694 36.785 52.694 39.725zM75.592 54.983A2.695 2.695 0 0 1 72.899 57.68 2.695 2.695 0 0 1 70.205 54.983V43.092A1.123 1.123 0 0 0 67.96 43.092V89.562A2.693 2.693 0 0 1 62.573 89.562V57.459A1.122 1.122 0 1 0 60.328 57.459V89.562A2.693 2.693 0 0 1 54.941 89.562V38.352C54.941 37.869 54.869 37.545 54.753 37.336 54.326 34.655 53.183 32.204 51.53 30.149 54.092 27.743 57.601 26.255 61.451 26.255 69.209 26.255 75.594 32.286 75.594 39.725V54.983zM38.551 22.663A8.082 8.082 0 1 0 38.551 6.499 8.082 8.082 0 0 0 38.55 22.663M38.551 8.745A5.836 5.836 0 1 1 38.552 20.418 5.836 5.836 0 0 1 38.551 8.745" fill="#ffffff" data-fill-palette-color="quaternary"></path></g></g></svg></g></svg></g><g></g></svg></g></svg></g></svg></g></svg></g><defs></defs></svg><rect width="320" height="360" fill="none" stroke="none" visibility="hidden"></rect></g></svg></g></svg>